<mxfile host="app.diagrams.net" modified="2023-06-01T08:56:16.098Z" agent="Mozilla/5.0 (Windows NT 10.0; Win64; x64) AppleWebKit/537.36 (KHTML, like Gecko) Chrome/113.0.0.0 Safari/537.36" etag="jz2K3pESvUYxIanrTGIG" version="21.3.5" type="github" pages="5">
  <diagram name="第 1 页" id="9k_rCtPJAxfU9cjy0RwR">
    <mxGraphModel dx="1621" dy="1143" grid="0" gridSize="10" guides="1" tooltips="1" connect="1" arrows="1" fold="1" page="0" pageScale="1" pageWidth="827" pageHeight="1169" background="none" math="0" shadow="0">
      <root>
        <mxCell id="0" />
        <mxCell id="1" parent="0" />
        <mxCell id="VXeoQZlyLiipx-zeGLDP-1" value="&lt;p class=&quot;MsoNormal&quot;&gt;&lt;font style=&quot;font-size: 18px;&quot;&gt;问题分解&lt;/font&gt;&lt;/p&gt;" style="rounded=1;whiteSpace=wrap;html=1;" parent="1" vertex="1">
          <mxGeometry x="40" y="250" width="120" height="60" as="geometry" />
        </mxCell>
        <mxCell id="VXeoQZlyLiipx-zeGLDP-2" value="&lt;p class=&quot;MsoNormal&quot;&gt;&lt;font style=&quot;font-size: 18px;&quot;&gt;知识库的建立&lt;/font&gt;&lt;/p&gt;" style="rounded=1;whiteSpace=wrap;html=1;" parent="1" vertex="1">
          <mxGeometry x="-200" y="250" width="120" height="60" as="geometry" />
        </mxCell>
        <mxCell id="VXeoQZlyLiipx-zeGLDP-3" value="&lt;p class=&quot;MsoNormal&quot;&gt;&lt;font style=&quot;font-size: 18px;&quot;&gt;问题相似性判定&lt;/font&gt;&lt;br&gt;&lt;/p&gt;" style="rounded=1;whiteSpace=wrap;html=1;" parent="1" vertex="1">
          <mxGeometry x="279" y="246" width="141" height="65" as="geometry" />
        </mxCell>
        <mxCell id="VXeoQZlyLiipx-zeGLDP-4" value="&lt;p class=&quot;MsoNormal&quot;&gt;&lt;font style=&quot;font-size: 18px;&quot;&gt;答案抽取&lt;/font&gt;&lt;br&gt;&lt;/p&gt;" style="rounded=1;whiteSpace=wrap;html=1;" parent="1" vertex="1">
          <mxGeometry x="520" y="250" width="120" height="60" as="geometry" />
        </mxCell>
        <mxCell id="VXeoQZlyLiipx-zeGLDP-5" value="" style="shape=flexArrow;endArrow=classic;html=1;rounded=0;" parent="1" edge="1">
          <mxGeometry width="50" height="50" relative="1" as="geometry">
            <mxPoint x="-60" y="279.5" as="sourcePoint" />
            <mxPoint x="20" y="280" as="targetPoint" />
          </mxGeometry>
        </mxCell>
        <mxCell id="VXeoQZlyLiipx-zeGLDP-7" value="" style="shape=flexArrow;endArrow=classic;html=1;rounded=0;" parent="1" edge="1">
          <mxGeometry width="50" height="50" relative="1" as="geometry">
            <mxPoint x="180" y="279.5" as="sourcePoint" />
            <mxPoint x="260" y="280" as="targetPoint" />
          </mxGeometry>
        </mxCell>
        <mxCell id="VXeoQZlyLiipx-zeGLDP-8" value="" style="shape=flexArrow;endArrow=classic;html=1;rounded=0;" parent="1" edge="1">
          <mxGeometry width="50" height="50" relative="1" as="geometry">
            <mxPoint x="420" y="279.5" as="sourcePoint" />
            <mxPoint x="500" y="280" as="targetPoint" />
          </mxGeometry>
        </mxCell>
        <mxCell id="VXeoQZlyLiipx-zeGLDP-9" value="" style="ellipse;whiteSpace=wrap;html=1;align=center;dashed=1;" parent="1" vertex="1">
          <mxGeometry x="-200" y="320" width="120" height="160" as="geometry" />
        </mxCell>
        <mxCell id="VXeoQZlyLiipx-zeGLDP-11" value="" style="ellipse;whiteSpace=wrap;html=1;align=center;dashed=1;" parent="1" vertex="1">
          <mxGeometry x="40" y="320" width="120" height="160" as="geometry" />
        </mxCell>
        <mxCell id="VXeoQZlyLiipx-zeGLDP-12" value="&lt;ul style=&quot;font-size: 15px;&quot;&gt;&lt;li&gt;数据集&lt;/li&gt;&lt;li&gt;预处理&lt;/li&gt;&lt;li&gt;知识库&lt;/li&gt;&lt;/ul&gt;" style="text;strokeColor=none;fillColor=none;html=1;whiteSpace=wrap;verticalAlign=middle;overflow=hidden;" parent="1" vertex="1">
          <mxGeometry x="-200" y="358" width="100" height="80" as="geometry" />
        </mxCell>
        <mxCell id="VXeoQZlyLiipx-zeGLDP-10" value="&lt;ul style=&quot;font-size: 15px;&quot;&gt;&lt;li&gt;问题分类&lt;/li&gt;&lt;li&gt;分词&lt;br&gt;&lt;/li&gt;&lt;li&gt;正则化处理&lt;/li&gt;&lt;/ul&gt;" style="text;strokeColor=none;fillColor=none;html=1;whiteSpace=wrap;verticalAlign=middle;overflow=hidden;" parent="1" vertex="1">
          <mxGeometry x="23" y="358" width="140" height="80" as="geometry" />
        </mxCell>
        <mxCell id="VXeoQZlyLiipx-zeGLDP-13" value="" style="shape=flexArrow;endArrow=classic;html=1;rounded=0;startArrow=none;entryX=1;entryY=1;entryDx=0;entryDy=0;" parent="1" target="VXeoQZlyLiipx-zeGLDP-16" edge="1">
          <mxGeometry width="50" height="50" relative="1" as="geometry">
            <mxPoint x="474" y="131" as="sourcePoint" />
            <mxPoint x="392" y="73" as="targetPoint" />
          </mxGeometry>
        </mxCell>
        <mxCell id="VXeoQZlyLiipx-zeGLDP-14" value="" style="shape=flexArrow;endArrow=classic;html=1;rounded=0;startArrow=none;" parent="1" source="VXeoQZlyLiipx-zeGLDP-21" edge="1">
          <mxGeometry width="50" height="50" relative="1" as="geometry">
            <mxPoint x="270" y="100" as="sourcePoint" />
            <mxPoint x="110" y="230" as="targetPoint" />
          </mxGeometry>
        </mxCell>
        <mxCell id="VXeoQZlyLiipx-zeGLDP-15" value="" style="shape=actor;whiteSpace=wrap;html=1;" parent="1" vertex="1">
          <mxGeometry x="315" y="-19" width="60" height="80" as="geometry" />
        </mxCell>
        <mxCell id="VXeoQZlyLiipx-zeGLDP-16" value="&lt;span style=&quot;font-weight: normal;&quot;&gt;&lt;font style=&quot;font-size: 18px;&quot;&gt;用户&lt;/font&gt;&lt;/span&gt;" style="text;strokeColor=none;fillColor=none;html=1;fontSize=24;fontStyle=1;verticalAlign=middle;align=center;" parent="1" vertex="1">
          <mxGeometry x="295" y="21" width="100" height="40" as="geometry" />
        </mxCell>
        <mxCell id="VXeoQZlyLiipx-zeGLDP-17" value="" style="ellipse;whiteSpace=wrap;html=1;align=center;dashed=1;" parent="1" vertex="1">
          <mxGeometry x="290" y="320" width="128" height="160" as="geometry" />
        </mxCell>
        <mxCell id="VXeoQZlyLiipx-zeGLDP-18" value="" style="ellipse;whiteSpace=wrap;html=1;align=center;dashed=1;" parent="1" vertex="1">
          <mxGeometry x="520" y="320" width="120" height="160" as="geometry" />
        </mxCell>
        <mxCell id="VXeoQZlyLiipx-zeGLDP-19" value="&lt;ul style=&quot;font-size: 15px;&quot;&gt;&lt;li style=&quot;border-color: var(--border-color);&quot;&gt;TF-IDF词频检索&lt;/li&gt;&lt;li style=&quot;border-color: var(--border-color);&quot;&gt;余弦相似度&lt;/li&gt;&lt;/ul&gt;" style="text;strokeColor=none;fillColor=none;html=1;whiteSpace=wrap;verticalAlign=middle;overflow=hidden;" parent="1" vertex="1">
          <mxGeometry x="267" y="360" width="153" height="80" as="geometry" />
        </mxCell>
        <mxCell id="VXeoQZlyLiipx-zeGLDP-20" value="&lt;ul style=&quot;font-size: 15px;&quot;&gt;&lt;li&gt;候选答案索引&lt;/li&gt;&lt;li&gt;答案抽取&lt;/li&gt;&lt;/ul&gt;" style="text;strokeColor=none;fillColor=none;html=1;whiteSpace=wrap;verticalAlign=middle;overflow=hidden;" parent="1" vertex="1">
          <mxGeometry x="501" y="362" width="135" height="80" as="geometry" />
        </mxCell>
        <mxCell id="VXeoQZlyLiipx-zeGLDP-22" value="" style="shape=flexArrow;endArrow=none;html=1;rounded=0;" parent="1" target="VXeoQZlyLiipx-zeGLDP-21" edge="1">
          <mxGeometry width="50" height="50" relative="1" as="geometry">
            <mxPoint x="288" y="66" as="sourcePoint" />
            <mxPoint x="110" y="230" as="targetPoint" />
          </mxGeometry>
        </mxCell>
        <mxCell id="VXeoQZlyLiipx-zeGLDP-21" value="&lt;span style=&quot;font-weight: normal;&quot;&gt;&lt;font style=&quot;font-size: 18px;&quot;&gt;问题&lt;/font&gt;&lt;/span&gt;" style="text;strokeColor=none;fillColor=none;html=1;fontSize=24;fontStyle=1;verticalAlign=middle;align=center;" parent="1" vertex="1">
          <mxGeometry x="134" y="140" width="100" height="40" as="geometry" />
        </mxCell>
        <mxCell id="VXeoQZlyLiipx-zeGLDP-24" value="" style="shape=flexArrow;endArrow=none;html=1;rounded=0;" parent="1" target="VXeoQZlyLiipx-zeGLDP-23" edge="1">
          <mxGeometry width="50" height="50" relative="1" as="geometry">
            <mxPoint x="580" y="230" as="sourcePoint" />
            <mxPoint x="390" y="100" as="targetPoint" />
          </mxGeometry>
        </mxCell>
        <mxCell id="VXeoQZlyLiipx-zeGLDP-23" value="&lt;font style=&quot;font-size: 18px; font-weight: normal;&quot;&gt;答案&lt;/font&gt;" style="text;strokeColor=none;fillColor=none;html=1;fontSize=24;fontStyle=1;verticalAlign=middle;align=center;" parent="1" vertex="1">
          <mxGeometry x="444" y="137" width="100" height="40" as="geometry" />
        </mxCell>
        <mxCell id="i1Twc_EbwiWZiLiTT1S2-1" value="" style="shape=flexArrow;endArrow=classic;html=1;rounded=0;entryX=0.5;entryY=1;entryDx=0;entryDy=0;" parent="1" source="VXeoQZlyLiipx-zeGLDP-3" target="i1Twc_EbwiWZiLiTT1S2-2" edge="1">
          <mxGeometry width="50" height="50" relative="1" as="geometry">
            <mxPoint x="408" y="314" as="sourcePoint" />
            <mxPoint x="462" y="505" as="targetPoint" />
          </mxGeometry>
        </mxCell>
        <mxCell id="i1Twc_EbwiWZiLiTT1S2-2" value="&lt;font style=&quot;font-size: 18px;&quot;&gt;问题补全&lt;/font&gt;" style="rounded=1;whiteSpace=wrap;html=1;" parent="1" vertex="1">
          <mxGeometry x="290" y="127" width="120" height="60" as="geometry" />
        </mxCell>
        <mxCell id="i1Twc_EbwiWZiLiTT1S2-3" value="" style="shape=flexArrow;endArrow=classic;html=1;rounded=0;" parent="1" edge="1">
          <mxGeometry width="50" height="50" relative="1" as="geometry">
            <mxPoint x="347" y="125" as="sourcePoint" />
            <mxPoint x="347" y="70" as="targetPoint" />
          </mxGeometry>
        </mxCell>
        <mxCell id="i1Twc_EbwiWZiLiTT1S2-4" value="" style="ellipse;whiteSpace=wrap;html=1;align=center;dashed=1;" parent="1" vertex="1">
          <mxGeometry x="172" y="164" width="147" height="103" as="geometry" />
        </mxCell>
        <mxCell id="i1Twc_EbwiWZiLiTT1S2-5" value="&lt;ul style=&quot;font-size: 15px;&quot;&gt;&lt;li style=&quot;&quot;&gt;&lt;p class=&quot;MsoNormal&quot;&gt;&lt;font style=&quot;font-size: 15px;&quot; face=&quot;宋体&quot;&gt;收集&lt;/font&gt;&lt;span style=&quot;font-family: &amp;quot;Times New Roman&amp;quot;;&quot;&gt;&lt;font style=&quot;font-size: 15px;&quot; face=&quot;宋体&quot;&gt;未知问题和未知问法&lt;/font&gt;&lt;/span&gt;&lt;/p&gt;&lt;/li&gt;&lt;li style=&quot;&quot;&gt;&lt;p class=&quot;MsoNormal&quot;&gt;&lt;span style=&quot;font-family: &amp;quot;Times New Roman&amp;quot;;&quot;&gt;&lt;font style=&quot;font-size: 15px;&quot; face=&quot;宋体&quot;&gt;提交至后台人为设置答复&lt;/font&gt;&lt;/span&gt;&lt;/p&gt;&lt;/li&gt;&lt;/ul&gt;" style="text;strokeColor=none;fillColor=none;html=1;whiteSpace=wrap;verticalAlign=middle;overflow=hidden;" parent="1" vertex="1">
          <mxGeometry x="163" y="151" width="136" height="135" as="geometry" />
        </mxCell>
      </root>
    </mxGraphModel>
  </diagram>
  <diagram id="ycOy1lE6ail_rDYpfQKt" name="第 2 页">
    <mxGraphModel dx="1621" dy="1143" grid="0" gridSize="10" guides="1" tooltips="1" connect="1" arrows="1" fold="1" page="0" pageScale="1" pageWidth="827" pageHeight="1169" math="0" shadow="0">
      <root>
        <mxCell id="0" />
        <mxCell id="1" parent="0" />
        <mxCell id="4jKozUlBTK5qNhABJNXw-11" value="" style="verticalLabelPosition=bottom;verticalAlign=top;html=1;shape=mxgraph.basic.patternFillRect;fillStyle=diag;step=5;fillStrokeWidth=0.2;fillStrokeColor=#dddddd;" parent="1" vertex="1">
          <mxGeometry x="-10" y="10" width="730" height="400" as="geometry" />
        </mxCell>
        <mxCell id="4jKozUlBTK5qNhABJNXw-1" value="sentence" style="rounded=0;whiteSpace=wrap;html=1;" parent="1" vertex="1">
          <mxGeometry x="90" y="-80" width="120" height="60" as="geometry" />
        </mxCell>
        <mxCell id="4jKozUlBTK5qNhABJNXw-2" value="兼容性处理" style="rounded=0;whiteSpace=wrap;html=1;" parent="1" vertex="1">
          <mxGeometry x="450" y="-80" width="120" height="60" as="geometry" />
        </mxCell>
        <mxCell id="4jKozUlBTK5qNhABJNXw-3" value="基于词典分词结果" style="rounded=0;whiteSpace=wrap;html=1;" parent="1" vertex="1">
          <mxGeometry x="90" y="40" width="120" height="60" as="geometry" />
        </mxCell>
        <mxCell id="4jKozUlBTK5qNhABJNXw-4" value="词性标注及用于词性标注的新词发现" style="rounded=0;whiteSpace=wrap;html=1;" parent="1" vertex="1">
          <mxGeometry x="90" y="160" width="120" height="60" as="geometry" />
        </mxCell>
        <mxCell id="4jKozUlBTK5qNhABJNXw-5" value="词性标注结果" style="rounded=0;whiteSpace=wrap;html=1;" parent="1" vertex="1">
          <mxGeometry x="90" y="280" width="120" height="60" as="geometry" />
        </mxCell>
        <mxCell id="4jKozUlBTK5qNhABJNXw-6" value="关键词提取" style="rounded=0;whiteSpace=wrap;html=1;" parent="1" vertex="1">
          <mxGeometry x="320" y="160" width="120" height="60" as="geometry" />
        </mxCell>
        <mxCell id="4jKozUlBTK5qNhABJNXw-7" value="关键词提取结果" style="rounded=0;whiteSpace=wrap;html=1;" parent="1" vertex="1">
          <mxGeometry x="320" y="280" width="120" height="60" as="geometry" />
        </mxCell>
        <mxCell id="4jKozUlBTK5qNhABJNXw-8" value="分词结果" style="rounded=0;whiteSpace=wrap;html=1;" parent="1" vertex="1">
          <mxGeometry x="520" y="280" width="120" height="60" as="geometry" />
        </mxCell>
        <mxCell id="4jKozUlBTK5qNhABJNXw-9" value="新词发现" style="rounded=0;whiteSpace=wrap;html=1;" parent="1" vertex="1">
          <mxGeometry x="520" y="40" width="120" height="60" as="geometry" />
        </mxCell>
        <mxCell id="4jKozUlBTK5qNhABJNXw-12" value="" style="endArrow=classic;html=1;rounded=0;exitX=0.5;exitY=1;exitDx=0;exitDy=0;" parent="1" source="4jKozUlBTK5qNhABJNXw-1" edge="1">
          <mxGeometry width="50" height="50" relative="1" as="geometry">
            <mxPoint x="170" y="220" as="sourcePoint" />
            <mxPoint x="150" y="40" as="targetPoint" />
          </mxGeometry>
        </mxCell>
        <mxCell id="4jKozUlBTK5qNhABJNXw-13" value="" style="endArrow=classic;html=1;rounded=0;exitX=0.5;exitY=1;exitDx=0;exitDy=0;" parent="1" edge="1">
          <mxGeometry width="50" height="50" relative="1" as="geometry">
            <mxPoint x="149.5" y="100" as="sourcePoint" />
            <mxPoint x="149.5" y="160" as="targetPoint" />
          </mxGeometry>
        </mxCell>
        <mxCell id="4jKozUlBTK5qNhABJNXw-14" value="" style="endArrow=classic;html=1;rounded=0;exitX=0.5;exitY=1;exitDx=0;exitDy=0;" parent="1" edge="1">
          <mxGeometry width="50" height="50" relative="1" as="geometry">
            <mxPoint x="149.5" y="220" as="sourcePoint" />
            <mxPoint x="149.5" y="280" as="targetPoint" />
          </mxGeometry>
        </mxCell>
        <mxCell id="4jKozUlBTK5qNhABJNXw-15" value="" style="endArrow=classic;html=1;rounded=0;exitX=0.5;exitY=1;exitDx=0;exitDy=0;" parent="1" edge="1">
          <mxGeometry width="50" height="50" relative="1" as="geometry">
            <mxPoint x="379.5" y="220" as="sourcePoint" />
            <mxPoint x="379.5" y="280" as="targetPoint" />
          </mxGeometry>
        </mxCell>
        <mxCell id="4jKozUlBTK5qNhABJNXw-16" value="" style="endArrow=classic;html=1;rounded=0;" parent="1" edge="1">
          <mxGeometry width="50" height="50" relative="1" as="geometry">
            <mxPoint x="580" y="100" as="sourcePoint" />
            <mxPoint x="579.5" y="280" as="targetPoint" />
          </mxGeometry>
        </mxCell>
        <mxCell id="4jKozUlBTK5qNhABJNXw-17" value="" style="endArrow=classic;html=1;rounded=0;" parent="1" edge="1">
          <mxGeometry width="50" height="50" relative="1" as="geometry">
            <mxPoint x="510" y="-20" as="sourcePoint" />
            <mxPoint x="510" y="10" as="targetPoint" />
          </mxGeometry>
        </mxCell>
        <mxCell id="4jKozUlBTK5qNhABJNXw-18" value="" style="endArrow=classic;html=1;rounded=0;" parent="1" edge="1">
          <mxGeometry width="50" height="50" relative="1" as="geometry">
            <mxPoint x="580" y="136" as="sourcePoint" />
            <mxPoint x="379.5" y="160" as="targetPoint" />
            <Array as="points">
              <mxPoint x="380" y="136" />
            </Array>
          </mxGeometry>
        </mxCell>
      </root>
    </mxGraphModel>
  </diagram>
  <diagram id="BSb3nH8qiWQDSn-JlYLv" name="第 3 页">
    <mxGraphModel dx="1621" dy="743" grid="0" gridSize="10" guides="1" tooltips="1" connect="1" arrows="1" fold="1" page="0" pageScale="1" pageWidth="827" pageHeight="1169" math="0" shadow="0">
      <root>
        <mxCell id="0" />
        <mxCell id="1" parent="0" />
        <mxCell id="iBUrKU4FkDZn9cnNOTZS-1" value="测试集" style="strokeWidth=2;html=1;shape=mxgraph.flowchart.multi-document;whiteSpace=wrap;" parent="1" vertex="1">
          <mxGeometry x="250" y="80" width="88" height="60" as="geometry" />
        </mxCell>
        <mxCell id="iBUrKU4FkDZn9cnNOTZS-2" value="训练集" style="strokeWidth=2;html=1;shape=mxgraph.flowchart.multi-document;whiteSpace=wrap;" parent="1" vertex="1">
          <mxGeometry x="-50" y="80" width="88" height="60" as="geometry" />
        </mxCell>
        <mxCell id="iBUrKU4FkDZn9cnNOTZS-3" value="未标记文本" style="strokeWidth=2;html=1;shape=mxgraph.flowchart.multi-document;whiteSpace=wrap;" parent="1" vertex="1">
          <mxGeometry x="586" y="80" width="88" height="60" as="geometry" />
        </mxCell>
        <mxCell id="iBUrKU4FkDZn9cnNOTZS-4" value="" style="verticalLabelPosition=bottom;verticalAlign=top;html=1;shape=mxgraph.basic.patternFillRect;fillStyle=diag;step=5;fillStrokeWidth=0.2;fillStrokeColor=#dddddd;" parent="1" vertex="1">
          <mxGeometry x="-116" y="200" width="220" height="330" as="geometry" />
        </mxCell>
        <mxCell id="iBUrKU4FkDZn9cnNOTZS-7" value="" style="verticalLabelPosition=bottom;verticalAlign=top;html=1;shape=mxgraph.basic.patternFillRect;fillStyle=diag;step=5;fillStrokeWidth=0.2;fillStrokeColor=#dddddd;" parent="1" vertex="1">
          <mxGeometry x="184" y="200" width="220" height="400" as="geometry" />
        </mxCell>
        <mxCell id="iBUrKU4FkDZn9cnNOTZS-8" value="" style="verticalLabelPosition=bottom;verticalAlign=top;html=1;shape=mxgraph.basic.patternFillRect;fillStyle=diag;step=5;fillStrokeWidth=0.2;fillStrokeColor=#dddddd;" parent="1" vertex="1">
          <mxGeometry x="520" y="200" width="220" height="400" as="geometry" />
        </mxCell>
        <mxCell id="iBUrKU4FkDZn9cnNOTZS-9" value="文本预处理" style="rounded=0;whiteSpace=wrap;html=1;" parent="1" vertex="1">
          <mxGeometry x="-66" y="230" width="120" height="60" as="geometry" />
        </mxCell>
        <mxCell id="iBUrKU4FkDZn9cnNOTZS-10" value="去掉停用词" style="rounded=0;whiteSpace=wrap;html=1;" parent="1" vertex="1">
          <mxGeometry x="-66" y="370" width="120" height="60" as="geometry" />
        </mxCell>
        <mxCell id="iBUrKU4FkDZn9cnNOTZS-11" value="分词" style="rounded=0;whiteSpace=wrap;html=1;" parent="1" vertex="1">
          <mxGeometry x="-66" y="300" width="120" height="60" as="geometry" />
        </mxCell>
        <mxCell id="iBUrKU4FkDZn9cnNOTZS-12" value="类别关键词提取" style="rounded=0;whiteSpace=wrap;html=1;" parent="1" vertex="1">
          <mxGeometry x="-66" y="440" width="120" height="60" as="geometry" />
        </mxCell>
        <mxCell id="iBUrKU4FkDZn9cnNOTZS-13" value="文本预处理" style="rounded=0;whiteSpace=wrap;html=1;" parent="1" vertex="1">
          <mxGeometry x="240" y="230" width="120" height="60" as="geometry" />
        </mxCell>
        <mxCell id="iBUrKU4FkDZn9cnNOTZS-14" value="分词" style="rounded=0;whiteSpace=wrap;html=1;" parent="1" vertex="1">
          <mxGeometry x="240" y="300" width="120" height="60" as="geometry" />
        </mxCell>
        <mxCell id="iBUrKU4FkDZn9cnNOTZS-15" value="去掉停用词" style="rounded=0;whiteSpace=wrap;html=1;" parent="1" vertex="1">
          <mxGeometry x="240" y="370" width="120" height="60" as="geometry" />
        </mxCell>
        <mxCell id="iBUrKU4FkDZn9cnNOTZS-16" value="文本关键词提取" style="rounded=0;whiteSpace=wrap;html=1;" parent="1" vertex="1">
          <mxGeometry x="240" y="440" width="120" height="60" as="geometry" />
        </mxCell>
        <mxCell id="iBUrKU4FkDZn9cnNOTZS-17" value="根据余弦相似度分类文本" style="rounded=0;whiteSpace=wrap;html=1;" parent="1" vertex="1">
          <mxGeometry x="240" y="510" width="120" height="60" as="geometry" />
        </mxCell>
        <mxCell id="iBUrKU4FkDZn9cnNOTZS-18" value="文本预处理" style="rounded=0;whiteSpace=wrap;html=1;" parent="1" vertex="1">
          <mxGeometry x="570" y="230" width="120" height="60" as="geometry" />
        </mxCell>
        <mxCell id="iBUrKU4FkDZn9cnNOTZS-19" value="分词" style="rounded=0;whiteSpace=wrap;html=1;" parent="1" vertex="1">
          <mxGeometry x="570" y="300" width="120" height="60" as="geometry" />
        </mxCell>
        <mxCell id="iBUrKU4FkDZn9cnNOTZS-20" value="去掉停用词" style="rounded=0;whiteSpace=wrap;html=1;" parent="1" vertex="1">
          <mxGeometry x="570" y="370" width="120" height="60" as="geometry" />
        </mxCell>
        <mxCell id="iBUrKU4FkDZn9cnNOTZS-21" value="文本关键词提取" style="rounded=0;whiteSpace=wrap;html=1;" parent="1" vertex="1">
          <mxGeometry x="570" y="440" width="120" height="60" as="geometry" />
        </mxCell>
        <mxCell id="iBUrKU4FkDZn9cnNOTZS-22" value="根据余弦相似度分类文本" style="rounded=0;whiteSpace=wrap;html=1;" parent="1" vertex="1">
          <mxGeometry x="570" y="510" width="120" height="60" as="geometry" />
        </mxCell>
        <mxCell id="iBUrKU4FkDZn9cnNOTZS-24" value="" style="html=1;shadow=0;dashed=0;align=center;verticalAlign=middle;shape=mxgraph.arrows2.arrow;dy=0.54;dx=27;direction=south;notch=0;" parent="1" vertex="1">
          <mxGeometry x="-50" y="150" width="70" height="50" as="geometry" />
        </mxCell>
        <mxCell id="iBUrKU4FkDZn9cnNOTZS-25" value="" style="html=1;shadow=0;dashed=0;align=center;verticalAlign=middle;shape=mxgraph.arrows2.arrow;dy=0.54;dx=27;direction=south;notch=0;" parent="1" vertex="1">
          <mxGeometry x="259" y="150" width="70" height="50" as="geometry" />
        </mxCell>
        <mxCell id="iBUrKU4FkDZn9cnNOTZS-26" value="" style="html=1;shadow=0;dashed=0;align=center;verticalAlign=middle;shape=mxgraph.arrows2.arrow;dy=0.54;dx=27;direction=south;notch=0;" parent="1" vertex="1">
          <mxGeometry x="595" y="150" width="70" height="50" as="geometry" />
        </mxCell>
        <mxCell id="iBUrKU4FkDZn9cnNOTZS-27" value="测试" style="html=1;shadow=0;dashed=0;align=center;verticalAlign=middle;shape=mxgraph.arrows2.arrow;dy=0.6;dx=40;notch=0;" parent="1" vertex="1">
          <mxGeometry x="110" y="320" width="70" height="50" as="geometry" />
        </mxCell>
        <mxCell id="iBUrKU4FkDZn9cnNOTZS-28" value="应用阈值" style="html=1;shadow=0;dashed=0;align=center;verticalAlign=middle;shape=mxgraph.arrows2.arrow;dy=0.6;dx=40;notch=0;" parent="1" vertex="1">
          <mxGeometry x="410" y="300" width="110" height="80" as="geometry" />
        </mxCell>
        <mxCell id="iBUrKU4FkDZn9cnNOTZS-29" value="" style="html=1;shadow=0;dashed=0;align=center;verticalAlign=middle;shape=mxgraph.arrows2.arrow;dy=0.6;dx=40;direction=north;notch=0;" parent="1" vertex="1">
          <mxGeometry x="-38" y="550" width="46" height="150" as="geometry" />
        </mxCell>
        <mxCell id="iBUrKU4FkDZn9cnNOTZS-30" value="" style="verticalLabelPosition=bottom;verticalAlign=top;html=1;shape=mxgraph.basic.patternFillRect;fillStyle=diag;step=5;fillStrokeWidth=0.2;fillStrokeColor=#dddddd;" parent="1" vertex="1">
          <mxGeometry x="-116" y="710" width="856" height="170" as="geometry" />
        </mxCell>
        <mxCell id="iBUrKU4FkDZn9cnNOTZS-31" value="" style="html=1;shadow=0;dashed=0;align=center;verticalAlign=middle;shape=mxgraph.arrows2.arrow;dy=0.6;dx=40;direction=south;notch=0;" parent="1" vertex="1">
          <mxGeometry x="274" y="610" width="40" height="90" as="geometry" />
        </mxCell>
        <mxCell id="iBUrKU4FkDZn9cnNOTZS-32" value="" style="html=1;shadow=0;dashed=0;align=center;verticalAlign=middle;shape=mxgraph.arrows2.arrow;dy=0.6;dx=40;direction=south;notch=0;" parent="1" vertex="1">
          <mxGeometry x="610" y="610" width="40" height="90" as="geometry" />
        </mxCell>
        <mxCell id="iBUrKU4FkDZn9cnNOTZS-33" value="" style="verticalLabelPosition=bottom;verticalAlign=top;html=1;shape=mxgraph.basic.rect;fillColor2=none;strokeWidth=1;size=20;indent=5;" parent="1" vertex="1">
          <mxGeometry x="-75" y="730" width="775" height="40" as="geometry" />
        </mxCell>
        <mxCell id="iBUrKU4FkDZn9cnNOTZS-35" value="" style="verticalLabelPosition=bottom;verticalAlign=top;html=1;shape=mxgraph.basic.rect;fillColor2=none;strokeWidth=1;size=20;indent=5;" parent="1" vertex="1">
          <mxGeometry x="-75" y="780" width="775" height="40" as="geometry" />
        </mxCell>
        <mxCell id="iBUrKU4FkDZn9cnNOTZS-36" value="" style="verticalLabelPosition=bottom;verticalAlign=top;html=1;shape=mxgraph.basic.rect;fillColor2=none;strokeWidth=1;size=20;indent=5;" parent="1" vertex="1">
          <mxGeometry x="-75.5" y="830" width="775" height="40" as="geometry" />
        </mxCell>
        <mxCell id="iBUrKU4FkDZn9cnNOTZS-37" value="判断阈值条件" style="text;html=1;strokeColor=none;fillColor=none;align=center;verticalAlign=middle;whiteSpace=wrap;rounded=0;" parent="1" vertex="1">
          <mxGeometry x="199" y="735" width="190" height="30" as="geometry" />
        </mxCell>
        <mxCell id="iBUrKU4FkDZn9cnNOTZS-38" value="更新训练集" style="text;html=1;strokeColor=none;fillColor=none;align=center;verticalAlign=middle;whiteSpace=wrap;rounded=0;" parent="1" vertex="1">
          <mxGeometry x="243.5" y="785" width="101" height="30" as="geometry" />
        </mxCell>
        <mxCell id="iBUrKU4FkDZn9cnNOTZS-39" value="根据余弦相似度分类文本" style="text;html=1;strokeColor=none;fillColor=none;align=center;verticalAlign=middle;whiteSpace=wrap;rounded=0;" parent="1" vertex="1">
          <mxGeometry x="211" y="835" width="166" height="30" as="geometry" />
        </mxCell>
        <mxCell id="iBUrKU4FkDZn9cnNOTZS-40" value="3.自动更新类别关键词阶段" style="text;html=1;strokeColor=none;fillColor=none;align=center;verticalAlign=middle;whiteSpace=wrap;rounded=0;" parent="1" vertex="1">
          <mxGeometry x="-116" y="705" width="154" height="30" as="geometry" />
        </mxCell>
        <mxCell id="iBUrKU4FkDZn9cnNOTZS-41" value="1.训练阶段" style="text;html=1;strokeColor=none;fillColor=none;align=center;verticalAlign=middle;whiteSpace=wrap;rounded=0;" parent="1" vertex="1">
          <mxGeometry x="-116" y="200" width="60" height="30" as="geometry" />
        </mxCell>
        <mxCell id="iBUrKU4FkDZn9cnNOTZS-42" value="2.测试阶段" style="text;html=1;strokeColor=none;fillColor=none;align=center;verticalAlign=middle;whiteSpace=wrap;rounded=0;" parent="1" vertex="1">
          <mxGeometry x="183.5" y="200" width="60" height="30" as="geometry" />
        </mxCell>
        <mxCell id="iBUrKU4FkDZn9cnNOTZS-43" value="应用" style="text;html=1;strokeColor=none;fillColor=none;align=center;verticalAlign=middle;whiteSpace=wrap;rounded=0;" parent="1" vertex="1">
          <mxGeometry x="520" y="200" width="60" height="30" as="geometry" />
        </mxCell>
      </root>
    </mxGraphModel>
  </diagram>
  <diagram id="ctBMYdd5rbIwCStfpamM" name="第 4 页">
    <mxGraphModel dx="1221" dy="743" grid="0" gridSize="10" guides="1" tooltips="1" connect="1" arrows="1" fold="1" page="0" pageScale="1" pageWidth="827" pageHeight="1169" math="0" shadow="0">
      <root>
        <mxCell id="0" />
        <mxCell id="1" parent="0" />
        <mxCell id="kvtVT6dpRqu6rlDk2SQN-1" value="知识库" style="rounded=0;whiteSpace=wrap;html=1;" parent="1" vertex="1">
          <mxGeometry x="360" y="20" width="120" height="60" as="geometry" />
        </mxCell>
        <mxCell id="kvtVT6dpRqu6rlDk2SQN-2" value="数据清洗和处理" style="rounded=0;whiteSpace=wrap;html=1;" parent="1" vertex="1">
          <mxGeometry x="360" y="140" width="120" height="60" as="geometry" />
        </mxCell>
        <mxCell id="kvtVT6dpRqu6rlDk2SQN-3" value="特征提取（文本向量化）" style="rounded=0;whiteSpace=wrap;html=1;" parent="1" vertex="1">
          <mxGeometry x="350" y="260" width="140" height="60" as="geometry" />
        </mxCell>
        <mxCell id="kvtVT6dpRqu6rlDk2SQN-4" value="建立训练模型，传入特征" style="rounded=0;whiteSpace=wrap;html=1;" parent="1" vertex="1">
          <mxGeometry x="340" y="380" width="160" height="60" as="geometry" />
        </mxCell>
        <mxCell id="kvtVT6dpRqu6rlDk2SQN-5" value="模型评估" style="rounded=0;whiteSpace=wrap;html=1;" parent="1" vertex="1">
          <mxGeometry x="360" y="480" width="120" height="60" as="geometry" />
        </mxCell>
        <mxCell id="kvtVT6dpRqu6rlDk2SQN-6" value="" style="endArrow=classic;html=1;rounded=0;exitX=0.5;exitY=1;exitDx=0;exitDy=0;entryX=0.5;entryY=0;entryDx=0;entryDy=0;" parent="1" source="kvtVT6dpRqu6rlDk2SQN-1" target="kvtVT6dpRqu6rlDk2SQN-2" edge="1">
          <mxGeometry width="50" height="50" relative="1" as="geometry">
            <mxPoint x="390" y="410" as="sourcePoint" />
            <mxPoint x="440" y="360" as="targetPoint" />
            <Array as="points">
              <mxPoint x="420" y="110" />
            </Array>
          </mxGeometry>
        </mxCell>
        <mxCell id="kvtVT6dpRqu6rlDk2SQN-8" value="" style="endArrow=classic;html=1;rounded=0;entryX=0.5;entryY=0;entryDx=0;entryDy=0;exitX=0.5;exitY=1;exitDx=0;exitDy=0;" parent="1" source="kvtVT6dpRqu6rlDk2SQN-2" target="kvtVT6dpRqu6rlDk2SQN-3" edge="1">
          <mxGeometry width="50" height="50" relative="1" as="geometry">
            <mxPoint x="390" y="410" as="sourcePoint" />
            <mxPoint x="440" y="360" as="targetPoint" />
            <Array as="points">
              <mxPoint x="420" y="230" />
            </Array>
          </mxGeometry>
        </mxCell>
        <mxCell id="kvtVT6dpRqu6rlDk2SQN-9" value="" style="endArrow=classic;html=1;rounded=0;exitX=0.5;exitY=1;exitDx=0;exitDy=0;entryX=0.5;entryY=0;entryDx=0;entryDy=0;" parent="1" source="kvtVT6dpRqu6rlDk2SQN-3" target="kvtVT6dpRqu6rlDk2SQN-4" edge="1">
          <mxGeometry width="50" height="50" relative="1" as="geometry">
            <mxPoint x="390" y="410" as="sourcePoint" />
            <mxPoint x="440" y="360" as="targetPoint" />
          </mxGeometry>
        </mxCell>
        <mxCell id="kvtVT6dpRqu6rlDk2SQN-10" value="" style="endArrow=classic;html=1;rounded=0;exitX=0.5;exitY=1;exitDx=0;exitDy=0;entryX=0.5;entryY=0;entryDx=0;entryDy=0;" parent="1" source="kvtVT6dpRqu6rlDk2SQN-4" target="kvtVT6dpRqu6rlDk2SQN-5" edge="1">
          <mxGeometry width="50" height="50" relative="1" as="geometry">
            <mxPoint x="390" y="410" as="sourcePoint" />
            <mxPoint x="440" y="360" as="targetPoint" />
          </mxGeometry>
        </mxCell>
        <mxCell id="kvtVT6dpRqu6rlDk2SQN-13" value="数据集" style="whiteSpace=wrap;html=1;rounded=1;arcSize=50;align=center;verticalAlign=middle;strokeWidth=1;autosize=1;spacing=4;treeFolding=1;treeMoving=1;newEdgeStyle={&quot;edgeStyle&quot;:&quot;entityRelationEdgeStyle&quot;,&quot;startArrow&quot;:&quot;none&quot;,&quot;endArrow&quot;:&quot;none&quot;,&quot;segment&quot;:10,&quot;curved&quot;:1,&quot;sourcePerimeterSpacing&quot;:0,&quot;targetPerimeterSpacing&quot;:0};" parent="1" vertex="1">
          <mxGeometry x="525" y="10" width="80" height="30" as="geometry" />
        </mxCell>
        <mxCell id="kvtVT6dpRqu6rlDk2SQN-14" value="" style="edgeStyle=entityRelationEdgeStyle;startArrow=none;endArrow=none;segment=10;curved=1;sourcePerimeterSpacing=0;targetPerimeterSpacing=0;rounded=0;" parent="1" target="kvtVT6dpRqu6rlDk2SQN-13" edge="1">
          <mxGeometry relative="1" as="geometry">
            <mxPoint x="480" y="52" as="sourcePoint" />
          </mxGeometry>
        </mxCell>
        <mxCell id="kvtVT6dpRqu6rlDk2SQN-15" value="去重" style="whiteSpace=wrap;html=1;rounded=1;arcSize=50;align=center;verticalAlign=middle;strokeWidth=1;autosize=1;spacing=4;treeFolding=1;treeMoving=1;newEdgeStyle={&quot;edgeStyle&quot;:&quot;entityRelationEdgeStyle&quot;,&quot;startArrow&quot;:&quot;none&quot;,&quot;endArrow&quot;:&quot;none&quot;,&quot;segment&quot;:10,&quot;curved&quot;:1,&quot;sourcePerimeterSpacing&quot;:0,&quot;targetPerimeterSpacing&quot;:0};" parent="1" vertex="1">
          <mxGeometry x="525" y="120" width="70" height="30" as="geometry" />
        </mxCell>
        <mxCell id="kvtVT6dpRqu6rlDk2SQN-16" value="" style="edgeStyle=entityRelationEdgeStyle;startArrow=none;endArrow=none;segment=10;curved=1;sourcePerimeterSpacing=0;targetPerimeterSpacing=0;rounded=0;" parent="1" target="kvtVT6dpRqu6rlDk2SQN-15" edge="1">
          <mxGeometry relative="1" as="geometry">
            <mxPoint x="480" y="170" as="sourcePoint" />
          </mxGeometry>
        </mxCell>
        <mxCell id="kvtVT6dpRqu6rlDk2SQN-19" value="分词" style="whiteSpace=wrap;html=1;rounded=1;arcSize=50;align=center;verticalAlign=middle;strokeWidth=1;autosize=1;spacing=4;treeFolding=1;treeMoving=1;newEdgeStyle={&quot;edgeStyle&quot;:&quot;entityRelationEdgeStyle&quot;,&quot;startArrow&quot;:&quot;none&quot;,&quot;endArrow&quot;:&quot;none&quot;,&quot;segment&quot;:10,&quot;curved&quot;:1,&quot;sourcePerimeterSpacing&quot;:0,&quot;targetPerimeterSpacing&quot;:0};" parent="1" vertex="1">
          <mxGeometry x="525" y="160" width="70" height="30" as="geometry" />
        </mxCell>
        <mxCell id="kvtVT6dpRqu6rlDk2SQN-20" value="" style="edgeStyle=entityRelationEdgeStyle;startArrow=none;endArrow=none;segment=10;curved=1;sourcePerimeterSpacing=0;targetPerimeterSpacing=0;rounded=0;" parent="1" target="kvtVT6dpRqu6rlDk2SQN-19" edge="1">
          <mxGeometry relative="1" as="geometry">
            <mxPoint x="480" y="182" as="sourcePoint" />
          </mxGeometry>
        </mxCell>
        <mxCell id="kvtVT6dpRqu6rlDk2SQN-23" value="去除停用词、标点符号" style="whiteSpace=wrap;html=1;rounded=1;arcSize=50;align=center;verticalAlign=middle;strokeWidth=1;autosize=1;spacing=4;treeFolding=1;treeMoving=1;newEdgeStyle={&quot;edgeStyle&quot;:&quot;entityRelationEdgeStyle&quot;,&quot;startArrow&quot;:&quot;none&quot;,&quot;endArrow&quot;:&quot;none&quot;,&quot;segment&quot;:10,&quot;curved&quot;:1,&quot;sourcePerimeterSpacing&quot;:0,&quot;targetPerimeterSpacing&quot;:0};" parent="1" vertex="1">
          <mxGeometry x="525" y="200" width="160" height="30" as="geometry" />
        </mxCell>
        <mxCell id="kvtVT6dpRqu6rlDk2SQN-24" value="" style="edgeStyle=entityRelationEdgeStyle;startArrow=none;endArrow=none;segment=10;curved=1;sourcePerimeterSpacing=0;targetPerimeterSpacing=0;rounded=0;" parent="1" target="kvtVT6dpRqu6rlDk2SQN-23" edge="1">
          <mxGeometry relative="1" as="geometry">
            <mxPoint x="480" y="190" as="sourcePoint" />
          </mxGeometry>
        </mxCell>
        <mxCell id="kvtVT6dpRqu6rlDk2SQN-25" value="TF-IDF算法" style="whiteSpace=wrap;html=1;rounded=1;arcSize=50;align=center;verticalAlign=middle;strokeWidth=1;autosize=1;spacing=4;treeFolding=1;treeMoving=1;newEdgeStyle={&quot;edgeStyle&quot;:&quot;entityRelationEdgeStyle&quot;,&quot;startArrow&quot;:&quot;none&quot;,&quot;endArrow&quot;:&quot;none&quot;,&quot;segment&quot;:10,&quot;curved&quot;:1,&quot;sourcePerimeterSpacing&quot;:0,&quot;targetPerimeterSpacing&quot;:0};" parent="1" vertex="1">
          <mxGeometry x="525" y="275" width="110" height="30" as="geometry" />
        </mxCell>
        <mxCell id="kvtVT6dpRqu6rlDk2SQN-26" value="" style="edgeStyle=entityRelationEdgeStyle;startArrow=none;endArrow=none;segment=10;curved=1;sourcePerimeterSpacing=0;targetPerimeterSpacing=0;rounded=0;" parent="1" target="kvtVT6dpRqu6rlDk2SQN-25" edge="1">
          <mxGeometry relative="1" as="geometry">
            <mxPoint x="490" y="292" as="sourcePoint" />
          </mxGeometry>
        </mxCell>
        <mxCell id="kvtVT6dpRqu6rlDk2SQN-27" value="朴素贝叶斯算法" style="whiteSpace=wrap;html=1;rounded=1;arcSize=50;align=center;verticalAlign=middle;strokeWidth=1;autosize=1;spacing=4;treeFolding=1;treeMoving=1;newEdgeStyle={&quot;edgeStyle&quot;:&quot;entityRelationEdgeStyle&quot;,&quot;startArrow&quot;:&quot;none&quot;,&quot;endArrow&quot;:&quot;none&quot;,&quot;segment&quot;:10,&quot;curved&quot;:1,&quot;sourcePerimeterSpacing&quot;:0,&quot;targetPerimeterSpacing&quot;:0};" parent="1" vertex="1">
          <mxGeometry x="525" y="395" width="130" height="30" as="geometry" />
        </mxCell>
        <mxCell id="kvtVT6dpRqu6rlDk2SQN-28" value="" style="edgeStyle=entityRelationEdgeStyle;startArrow=none;endArrow=none;segment=10;curved=1;sourcePerimeterSpacing=0;targetPerimeterSpacing=0;rounded=0;" parent="1" target="kvtVT6dpRqu6rlDk2SQN-27" edge="1">
          <mxGeometry relative="1" as="geometry">
            <mxPoint x="500" y="412" as="sourcePoint" />
          </mxGeometry>
        </mxCell>
        <mxCell id="kvtVT6dpRqu6rlDk2SQN-29" value="模型的准确率" style="whiteSpace=wrap;html=1;rounded=1;arcSize=50;align=center;verticalAlign=middle;strokeWidth=1;autosize=1;spacing=4;treeFolding=1;treeMoving=1;newEdgeStyle={&quot;edgeStyle&quot;:&quot;entityRelationEdgeStyle&quot;,&quot;startArrow&quot;:&quot;none&quot;,&quot;endArrow&quot;:&quot;none&quot;,&quot;segment&quot;:10,&quot;curved&quot;:1,&quot;sourcePerimeterSpacing&quot;:0,&quot;targetPerimeterSpacing&quot;:0};" parent="1" vertex="1">
          <mxGeometry x="525" y="470" width="120" height="30" as="geometry" />
        </mxCell>
        <mxCell id="kvtVT6dpRqu6rlDk2SQN-30" value="" style="edgeStyle=entityRelationEdgeStyle;startArrow=none;endArrow=none;segment=10;curved=1;sourcePerimeterSpacing=0;targetPerimeterSpacing=0;rounded=0;" parent="1" target="kvtVT6dpRqu6rlDk2SQN-29" edge="1">
          <mxGeometry relative="1" as="geometry">
            <mxPoint x="480" y="512" as="sourcePoint" />
          </mxGeometry>
        </mxCell>
        <mxCell id="kvtVT6dpRqu6rlDk2SQN-31" value="召回率" style="whiteSpace=wrap;html=1;rounded=1;arcSize=50;align=center;verticalAlign=middle;strokeWidth=1;autosize=1;spacing=4;treeFolding=1;treeMoving=1;newEdgeStyle={&quot;edgeStyle&quot;:&quot;entityRelationEdgeStyle&quot;,&quot;startArrow&quot;:&quot;none&quot;,&quot;endArrow&quot;:&quot;none&quot;,&quot;segment&quot;:10,&quot;curved&quot;:1,&quot;sourcePerimeterSpacing&quot;:0,&quot;targetPerimeterSpacing&quot;:0};" parent="1" vertex="1">
          <mxGeometry x="525" y="510" width="80" height="30" as="geometry" />
        </mxCell>
        <mxCell id="kvtVT6dpRqu6rlDk2SQN-32" value="" style="edgeStyle=entityRelationEdgeStyle;startArrow=none;endArrow=none;segment=10;curved=1;sourcePerimeterSpacing=0;targetPerimeterSpacing=0;rounded=0;" parent="1" target="kvtVT6dpRqu6rlDk2SQN-31" edge="1">
          <mxGeometry relative="1" as="geometry">
            <mxPoint x="480" y="512" as="sourcePoint" />
          </mxGeometry>
        </mxCell>
      </root>
    </mxGraphModel>
  </diagram>
  <diagram id="VpnS2iSGwthIzMMD-nXI" name="第 5 页">
    <mxGraphModel dx="1621" dy="743" grid="0" gridSize="10" guides="1" tooltips="1" connect="1" arrows="1" fold="1" page="0" pageScale="1" pageWidth="827" pageHeight="1169" math="0" shadow="0">
      <root>
        <mxCell id="0" />
        <mxCell id="1" parent="0" />
        <mxCell id="XFd6-Kk1t_56mqcRM_VP-1" value="&lt;font style=&quot;font-size: 15px;&quot;&gt;用户输入问题&lt;/font&gt;" style="rounded=0;whiteSpace=wrap;html=1;" vertex="1" parent="1">
          <mxGeometry x="-120" y="120" width="120" height="60" as="geometry" />
        </mxCell>
        <mxCell id="XFd6-Kk1t_56mqcRM_VP-2" value="&lt;font style=&quot;font-size: 15px;&quot;&gt;代码提取输入的文字&lt;/font&gt;" style="rounded=0;whiteSpace=wrap;html=1;" vertex="1" parent="1">
          <mxGeometry x="80" y="120" width="120" height="60" as="geometry" />
        </mxCell>
        <mxCell id="XFd6-Kk1t_56mqcRM_VP-3" value="&lt;font style=&quot;font-size: 15px;&quot;&gt;知识库&lt;/font&gt;" style="rounded=0;whiteSpace=wrap;html=1;" vertex="1" parent="1">
          <mxGeometry x="360" y="120" width="120" height="60" as="geometry" />
        </mxCell>
        <mxCell id="XFd6-Kk1t_56mqcRM_VP-4" value="&lt;font style=&quot;font-size: 15px;&quot;&gt;计算问题相似度&lt;/font&gt;" style="rounded=0;whiteSpace=wrap;html=1;" vertex="1" parent="1">
          <mxGeometry x="80" y="350" width="120" height="60" as="geometry" />
        </mxCell>
        <mxCell id="XFd6-Kk1t_56mqcRM_VP-5" value="&lt;font style=&quot;font-size: 15px;&quot;&gt;代码提取所有问题放入一个列表&lt;/font&gt;" style="rounded=0;whiteSpace=wrap;html=1;" vertex="1" parent="1">
          <mxGeometry x="360" y="350" width="120" height="60" as="geometry" />
        </mxCell>
        <mxCell id="XFd6-Kk1t_56mqcRM_VP-6" value="&lt;font style=&quot;font-size: 15px;&quot;&gt;相似度小于阈值&lt;/font&gt;" style="rounded=0;whiteSpace=wrap;html=1;" vertex="1" parent="1">
          <mxGeometry x="-120" y="480" width="120" height="60" as="geometry" />
        </mxCell>
        <mxCell id="XFd6-Kk1t_56mqcRM_VP-7" value="&lt;font style=&quot;font-size: 15px;&quot;&gt;相似度大于阈值&lt;/font&gt;" style="rounded=0;whiteSpace=wrap;html=1;" vertex="1" parent="1">
          <mxGeometry x="-120" y="220" width="120" height="60" as="geometry" />
        </mxCell>
        <mxCell id="XFd6-Kk1t_56mqcRM_VP-8" value="&lt;font style=&quot;font-size: 15px;&quot;&gt;用户&lt;/font&gt;" style="rounded=0;whiteSpace=wrap;html=1;" vertex="1" parent="1">
          <mxGeometry x="-380" y="340" width="90" height="60" as="geometry" />
        </mxCell>
        <mxCell id="XFd6-Kk1t_56mqcRM_VP-12" value="" style="endArrow=classic;html=1;rounded=0;entryX=0;entryY=0.5;entryDx=0;entryDy=0;exitX=1;exitY=0.5;exitDx=0;exitDy=0;" edge="1" parent="1" source="XFd6-Kk1t_56mqcRM_VP-1" target="XFd6-Kk1t_56mqcRM_VP-2">
          <mxGeometry width="50" height="50" relative="1" as="geometry">
            <mxPoint x="300" y="410" as="sourcePoint" />
            <mxPoint x="350" y="360" as="targetPoint" />
          </mxGeometry>
        </mxCell>
        <mxCell id="XFd6-Kk1t_56mqcRM_VP-13" value="" style="endArrow=classic;html=1;rounded=0;exitX=0.5;exitY=1;exitDx=0;exitDy=0;entryX=0.5;entryY=0;entryDx=0;entryDy=0;" edge="1" parent="1" source="XFd6-Kk1t_56mqcRM_VP-3" target="XFd6-Kk1t_56mqcRM_VP-5">
          <mxGeometry width="50" height="50" relative="1" as="geometry">
            <mxPoint x="300" y="410" as="sourcePoint" />
            <mxPoint x="350" y="360" as="targetPoint" />
          </mxGeometry>
        </mxCell>
        <mxCell id="XFd6-Kk1t_56mqcRM_VP-14" value="" style="endArrow=classic;html=1;rounded=0;exitX=0;exitY=0.5;exitDx=0;exitDy=0;entryX=1;entryY=0.5;entryDx=0;entryDy=0;" edge="1" parent="1" source="XFd6-Kk1t_56mqcRM_VP-5" target="XFd6-Kk1t_56mqcRM_VP-4">
          <mxGeometry width="50" height="50" relative="1" as="geometry">
            <mxPoint x="300" y="410" as="sourcePoint" />
            <mxPoint x="350" y="360" as="targetPoint" />
          </mxGeometry>
        </mxCell>
        <mxCell id="XFd6-Kk1t_56mqcRM_VP-15" value="" style="endArrow=classic;html=1;rounded=0;exitX=0.5;exitY=1;exitDx=0;exitDy=0;entryX=0.5;entryY=0;entryDx=0;entryDy=0;" edge="1" parent="1" source="XFd6-Kk1t_56mqcRM_VP-2" target="XFd6-Kk1t_56mqcRM_VP-4">
          <mxGeometry width="50" height="50" relative="1" as="geometry">
            <mxPoint x="300" y="410" as="sourcePoint" />
            <mxPoint x="350" y="360" as="targetPoint" />
          </mxGeometry>
        </mxCell>
        <mxCell id="XFd6-Kk1t_56mqcRM_VP-16" value="" style="endArrow=classic;html=1;rounded=0;entryX=1;entryY=0.5;entryDx=0;entryDy=0;exitX=0;exitY=0.25;exitDx=0;exitDy=0;" edge="1" parent="1" source="XFd6-Kk1t_56mqcRM_VP-4" target="XFd6-Kk1t_56mqcRM_VP-7">
          <mxGeometry width="50" height="50" relative="1" as="geometry">
            <mxPoint x="300" y="410" as="sourcePoint" />
            <mxPoint x="350" y="360" as="targetPoint" />
          </mxGeometry>
        </mxCell>
        <mxCell id="XFd6-Kk1t_56mqcRM_VP-17" value="" style="endArrow=classic;html=1;rounded=0;exitX=0;exitY=0.75;exitDx=0;exitDy=0;entryX=1;entryY=0.5;entryDx=0;entryDy=0;" edge="1" parent="1" source="XFd6-Kk1t_56mqcRM_VP-4" target="XFd6-Kk1t_56mqcRM_VP-6">
          <mxGeometry width="50" height="50" relative="1" as="geometry">
            <mxPoint x="160" y="410" as="sourcePoint" />
            <mxPoint x="210" y="360" as="targetPoint" />
          </mxGeometry>
        </mxCell>
        <mxCell id="XFd6-Kk1t_56mqcRM_VP-18" value="" style="endArrow=classic;html=1;rounded=0;entryX=1;entryY=0.5;entryDx=0;entryDy=0;exitX=0;exitY=0.5;exitDx=0;exitDy=0;" edge="1" parent="1" source="XFd6-Kk1t_56mqcRM_VP-7" target="XFd6-Kk1t_56mqcRM_VP-8">
          <mxGeometry width="50" height="50" relative="1" as="geometry">
            <mxPoint x="160" y="410" as="sourcePoint" />
            <mxPoint x="210" y="360" as="targetPoint" />
          </mxGeometry>
        </mxCell>
        <mxCell id="XFd6-Kk1t_56mqcRM_VP-19" value="" style="endArrow=classic;html=1;rounded=0;exitX=0;exitY=0.5;exitDx=0;exitDy=0;" edge="1" parent="1" source="XFd6-Kk1t_56mqcRM_VP-6">
          <mxGeometry width="50" height="50" relative="1" as="geometry">
            <mxPoint x="160" y="410" as="sourcePoint" />
            <mxPoint x="-290" y="370" as="targetPoint" />
          </mxGeometry>
        </mxCell>
        <mxCell id="XFd6-Kk1t_56mqcRM_VP-20" value="&lt;font style=&quot;font-size: 15px;&quot;&gt;返回给用户没有查到&lt;/font&gt;" style="shape=note;size=20;whiteSpace=wrap;html=1;" vertex="1" parent="1">
          <mxGeometry x="-240" y="410" width="90" height="90" as="geometry" />
        </mxCell>
        <mxCell id="XFd6-Kk1t_56mqcRM_VP-21" value="&lt;font style=&quot;font-size: 15px;&quot;&gt;将这个问题对应的答案返回给用户&lt;/font&gt;" style="shape=note;size=20;whiteSpace=wrap;html=1;align=left;" vertex="1" parent="1">
          <mxGeometry x="-240" y="260" width="90" height="90" as="geometry" />
        </mxCell>
      </root>
    </mxGraphModel>
  </diagram>
</mxfile>
